<?xml version="1.0" encoding="UTF-8" standalone="no"?>
<!-- Created with Inkscape (http://www.inkscape.org/) -->

<svg
   xmlns:dc="http://purl.org/dc/elements/1.1/"
   xmlns:cc="http://creativecommons.org/ns#"
   xmlns:rdf="http://www.w3.org/1999/02/22-rdf-syntax-ns#"
   xmlns:svg="http://www.w3.org/2000/svg"
   xmlns="http://www.w3.org/2000/svg"
   xmlns:sodipodi="http://sodipodi.sourceforge.net/DTD/sodipodi-0.dtd"
   xmlns:inkscape="http://www.inkscape.org/namespaces/inkscape"
   width="210mm"
   height="297mm"
   viewBox="0 0 744.09448819 1052.3622047"
   id="svg2"
   version="1.1"
   inkscape:version="0.91 r13725"
   sodipodi:docname="concept_colored.svg">
  <defs
     id="defs4" />
  <sodipodi:namedview
     id="base"
     pagecolor="#ffffff"
     bordercolor="#666666"
     borderopacity="1.0"
     inkscape:pageopacity="0.0"
     inkscape:pageshadow="2"
     inkscape:zoom="0.7"
     inkscape:cx="148.69889"
     inkscape:cy="933.22416"
     inkscape:document-units="px"
     inkscape:current-layer="layer1"
     showgrid="false"
     inkscape:window-width="1366"
     inkscape:window-height="705"
     inkscape:window-x="-32000"
     inkscape:window-y="-32000"
     inkscape:window-maximized="0" />
  <metadata
     id="metadata7">
    <rdf:RDF>
      <cc:Work
         rdf:about="">
        <dc:format>image/svg+xml</dc:format>
        <dc:type
           rdf:resource="http://purl.org/dc/dcmitype/StillImage" />
        <dc:title></dc:title>
      </cc:Work>
    </rdf:RDF>
  </metadata>
  <g
     inkscape:label="Layer 1"
     inkscape:groupmode="layer"
     id="layer1">
    <path
       style="fill:none;fill-rule:evenodd;stroke:#000000;stroke-width:1px;stroke-linecap:butt;stroke-linejoin:miter;stroke-opacity:1"
       d="m 3.0304576,211.91529 34.3451864,4.54568 37.375644,2.02031 44.951792,-2.02031 29.29442,-0.50507 42.93148,0.50507 37.37565,4.54569 35.35534,5.55584 25.25381,6.56599 18.18275,13.13198 5.05076,9.09138 7.07107,13.63706 1.01015,16.16244 -2.02031,11.11167 -5.05076,10.60661 -12.62691,13.13198 -21.2132,9.09137 -20.70813,5.05076 -20.20305,4.04061 -46.97209,4.04061 -40.91118,1.51523 -10.6066,-1.51523 -15.15229,2.02031 -44.44671,5.55584 -42.931483,6.56599 -34.8502631,6.06092 z"
       id="path4193"
       inkscape:connector-curvature="0"
       inkscape:export-xdpi="90"
       inkscape:export-ydpi="90"
       inkscape:export-filename="C:\Users\melen\Desktop\logo.png" />
    <path
       style="fill:none;fill-rule:evenodd;stroke:#000000;stroke-width:1px;stroke-linecap:butt;stroke-linejoin:miter;stroke-opacity:1"
       d="m 130,237.3622 0,21.42858 0.71429,23.57142 5,30.71429 2.85714,7.14286"
       id="path4195"
       inkscape:connector-curvature="0"
       inkscape:export-xdpi="90"
       inkscape:export-ydpi="90"
       inkscape:export-filename="C:\Users\melen\Desktop\logo.png" />
    <path
       style="fill:#87aade;fill-rule:evenodd;stroke:#000000;stroke-width:1px;stroke-linecap:butt;stroke-linejoin:miter;stroke-opacity:1"
       d="m 220.63506,213.27827 -4.86629,-4.66081 -4.75118,-8.31518 -3.87473,-10.79722 -6.42857,7.85714 -5,4.28572 -5,0 0,-7.14286 1.42857,-3.57143 6.60714,-9.64286 3.75,-5.35714 3.42349,-2.8915 -0.0306,-3.17993 1.96428,-10 5.53572,-11.42857 6.25,-6.42857 9.64285,-8.03571 10.17858,-3.75 10.23087,0.0201 7.36104,1.49882 12.26015,6.69009 6.63779,6.60342 4.56888,6.42857 3.94127,10.72326 1.82007,7.37899 0.7703,9.16316 2.75779,1.20667 0.90184,7.7869 c 0,0 3.57142,7.85714 3.57142,8.57142 0,0.71429 1.07143,8.57143 1.07143,8.57143 L 295,211.29077 l -5,0 -4.46429,-2.85714 -3.92857,-7.63742 -7.66062,10.12999 -8.78807,7.39014 -12.14132,4.37237 -13.85678,0.13153 -14.14022,-5.91453 z"
       id="path4197"
       inkscape:connector-curvature="0"
       sodipodi:nodetypes="ccccccccccccccccccccccccccccsccccccccccc"
       inkscape:export-xdpi="90"
       inkscape:export-ydpi="90"
       inkscape:export-filename="C:\Users\melen\Desktop\logo.png" />
    <path
       style="fill:#ffcc00;fill-rule:evenodd;stroke:#000000;stroke-width:1px;stroke-linecap:butt;stroke-linejoin:miter;stroke-opacity:1;fill-opacity:1"
       d="m 231.25,194.8622 0.53571,2.67857 2.5,2.85715 12.5,6.07143 13.75,-8.39286 0.89286,-1.07143 0.35714,-2.32143 z"
       id="path4222"
       inkscape:connector-curvature="0"
       inkscape:export-xdpi="90"
       inkscape:export-ydpi="90"
       inkscape:export-filename="C:\Users\melen\Desktop\logo.png" />
    <path
       style="fill:#ffcc00;fill-rule:evenodd;stroke:#000000;stroke-width:1px;stroke-linecap:butt;stroke-linejoin:miter;stroke-opacity:1"
       d="m 228.92857,194.32649 5.17857,-10 5.17857,-6.07143 3.92858,-3.21429 4.64285,-0.71428 3.39286,1.25 7.32143,8.39286 c 0,0 4.10714,7.85714 4.64286,9.10714 0.53571,1.25 -1.25,1.60714 -1.25,1.60714 z"
       id="path4224"
       inkscape:connector-curvature="0"
       inkscape:export-xdpi="90"
       inkscape:export-ydpi="90"
       inkscape:export-filename="C:\Users\melen\Desktop\logo.png" />
    <path
       style="fill:#ffffff;fill-rule:evenodd;stroke:#000000;stroke-width:1px;stroke-linecap:butt;stroke-linejoin:miter;stroke-opacity:1"
       d="m 235,182.3622 -3.21429,0 -6.07142,-3.39285 -2.85715,-5.17858 -0.71428,-6.78571 2.32143,-5.17857 7.14285,-3.57143 7.14286,0.35714 4.46429,1.78572 3.57142,5 -1.07142,7.85714 -0.35715,1.25 -3.21428,0.89286 -2.5,1.96428 z"
       id="path4226"
       inkscape:connector-curvature="0"
       inkscape:export-xdpi="90"
       inkscape:export-ydpi="90"
       inkscape:export-filename="C:\Users\melen\Desktop\logo.png" />
    <path
       style="fill:#ffffff;fill-rule:evenodd;stroke:#000000;stroke-width:1px;stroke-linecap:butt;stroke-linejoin:miter;stroke-opacity:1"
       d="m 246.25,171.1122 1.42857,3.57143 2.85714,0.89286 5,4.64286 1.60715,2.32142 3.03571,0 4.28572,-1.60714 4.82142,-4.82143 1.07143,-4.10714 0.71429,-2.85714 -0.89286,-3.39286 -3.39286,-4.10714 -5.17857,-2.32143 -7.67857,-0.35714 -4.46428,2.85714 -2.5,3.39286 z"
       id="path4230"
       inkscape:connector-curvature="0"
       inkscape:export-xdpi="90"
       inkscape:export-ydpi="90"
       inkscape:export-filename="C:\Users\melen\Desktop\logo.png" />
    <path
       style="opacity:1;fill:#000000;fill-opacity:1;stroke-width:1.55400002;stroke-miterlimit:4;stroke-dasharray:none"
       id="path4232"
       inkscape:export-xdpi="90"
       inkscape:export-ydpi="90"
       sodipodi:type="arc"
       sodipodi:cx="237.5"
       sodipodi:cy="171.46935"
       sodipodi:rx="2.8156726"
       sodipodi:ry="3.4821429"
       sodipodi:start="0"
       sodipodi:end="6.0645073"
       d="m 240.31567,171.46935 a 2.8156726,3.4821429 0 0 1 -2.66182,3.47694 2.8156726,3.4821429 0 0 1 -2.95271,-3.09697 2.8156726,3.4821429 0 0 1 2.33913,-3.81539 2.8156726,3.4821429 0 0 1 3.20835,2.68 L 237.5,171.46935 Z"
       inkscape:export-filename="C:\Users\melen\Desktop\logo.png" />
    <path
       style="opacity:1;fill:#000000;fill-opacity:1;stroke-width:1.55400002;stroke-miterlimit:4;stroke-dasharray:none"
       id="path4234"
       inkscape:export-xdpi="90"
       inkscape:export-ydpi="90"
       sodipodi:type="arc"
       sodipodi:cx="254.82143"
       sodipodi:cy="172.3622"
       sodipodi:rx="2.6785715"
       sodipodi:ry="3.4821427"
       sodipodi:start="0"
       sodipodi:end="6.0395885"
       d="m 257.5,172.3622 a 2.6785715,3.4821427 0 0 1 -2.51555,3.47569 2.6785715,3.4821427 0 0 1 -2.82175,-3.05262 2.6785715,3.4821427 0 0 1 2.17208,-3.84726 2.6785715,3.4821427 0 0 1 3.08614,2.58431 l -2.59949,0.83988 z"
       inkscape:export-filename="C:\Users\melen\Desktop\logo.png" />
    <path
       style="fill:#6600ff;fill-rule:evenodd;stroke:#000000;stroke-width:1px;stroke-linecap:butt;stroke-linejoin:miter;stroke-opacity:1"
       d="m 253.21429,130.57649 -6.78572,-5 -7.5,-1.78572 -14.28571,0.35715 -6.78572,5 0,6.07143 5.71429,0.71428 4.64286,-0.71428 10.35714,-5.35715 z"
       id="path4236"
       inkscape:connector-curvature="0"
       inkscape:export-xdpi="90"
       inkscape:export-ydpi="90"
       inkscape:export-filename="C:\Users\melen\Desktop\logo.png" />
    <path
       style="opacity:1;fill:#ffccaa;fill-opacity:1;stroke-width:1.55400002;stroke-miterlimit:4;stroke-dasharray:none"
       d="m 4.3449021,287.07385 0,-74.22546 3.2829958,0.57484 c 1.8056477,0.31616 10.9823151,1.5369 20.3925931,2.71275 20.326444,2.53986 42.877073,2.85844 112.695009,1.59207 44.81297,-0.81283 47.80788,-0.75164 65.15483,1.33127 10.00052,1.2008 22.27387,2.82202 27.27412,3.60272 5.00026,0.7807 13.86435,2.16059 19.69798,3.06643 11.55388,1.79407 33.57833,7.11756 36.9713,8.93627 1.16656,0.62531 5.58228,3.63706 9.81269,6.69277 7.24976,5.23665 8.03491,6.19421 13.66618,16.66751 5.50028,10.22968 6.01946,11.75314 6.54068,19.1929 1.07545,15.35088 -2.983,26.21139 -13.62563,36.46253 -5.15654,4.96686 -8.29069,6.96032 -16.20345,10.30619 -8.64138,3.65396 -28.63264,9.05783 -45.24299,12.22972 -13.14284,2.50973 -54.03638,5.3317 -82.32743,5.68124 -26.31375,0.3251 -32.12094,0.7248 -57.07362,3.92831 -29.182282,3.7465 -63.761971,8.9177 -87.12566,13.02916 l -13.8895979,2.44423 0,-74.22545 z m 133.7921379,29.2572 c -3.16791,-7.58189 -6.38142,-33.10417 -7.11872,-56.53826 -0.42872,-13.62655 -1.09948,-22.47589 -1.7036,-22.47589 -1.92196,0 0.16715,43.44086 2.89046,60.10407 2.55617,15.64047 4.97242,24.17144 6.567,23.18593 0.51173,-0.31627 0.23175,-2.2011 -0.63514,-4.27585 z"
       id="path4242"
       inkscape:connector-curvature="0"
       inkscape:export-filename="C:\Users\melen\Desktop\logo.png"
       inkscape:export-xdpi="90"
       inkscape:export-ydpi="90" />
    <path
       style="opacity:1;fill:#87aade;fill-opacity:1;stroke-width:1.55400002;stroke-miterlimit:4;stroke-dasharray:none"
       d="m 231.6735,218.95059 c -6.21162,-2.64941 -7.04758,-3.17276 -11.11168,-6.95628 -5.13993,-4.78511 -7.95171,-9.37104 -11.03948,-18.00513 -1.06784,-2.98592 -2.08639,-5.42922 -2.26345,-5.42957 -0.17705,-3.5e-4 -1.64538,1.64718 -3.26296,3.66117 -1.61758,2.01399 -4.08649,4.73743 -5.48646,6.05207 -2.22443,2.08885 -2.82285,2.39139 -4.74547,2.39912 l -2.20005,0.009 0.18199,-4.00748 0.18199,-4.00748 5.45571,-8.05263 c 3.00065,-4.42895 6.35208,-8.77297 7.44764,-9.65338 1.85138,-1.48781 1.99332,-1.78616 2.01182,-4.2286 0.0379,-4.9966 1.6745,-10.89112 4.65628,-16.76999 2.38588,-4.70399 3.42439,-6.14316 6.77329,-9.38644 7.61059,-7.37056 11.20823,-9.82375 18.43454,-12.57031 3.35389,-1.27474 11.21673,-1.39543 16.63645,-0.25536 8.15724,1.71593 18.65891,9.09635 24.41903,17.16135 3.79035,5.30703 7.52002,16.92669 8.15466,25.40558 0.33716,4.50441 0.41082,4.72808 1.79244,5.44254 0.79246,0.4098 1.44785,0.90972 1.45643,1.11093 0.14229,3.33792 1.25522,8.13226 2.54706,10.97243 1.88003,4.13328 3.22794,12.16555 2.73344,16.28871 -0.31719,2.64476 -0.32271,2.65165 -2.12275,2.65165 -3.27061,0 -5.92614,-2.21171 -8.41415,-7.00791 l -2.1943,-4.22999 -4.22992,5.50644 c -2.59981,3.38437 -5.84461,6.86364 -8.41981,9.02821 -3.61412,3.03783 -4.96858,3.81279 -9.85646,5.63942 l -5.66658,2.11763 -7.57614,-0.0103 -7.57615,-0.0103 -6.71696,-2.86496 0,3e-5 z m 22.62687,-16.19453 c 5.74813,-3.50556 7.4308,-4.77962 7.8219,-5.92247 0.27407,-0.80084 0.78546,-1.63784 1.13643,-1.85999 1.11672,-0.70684 0.69901,-2.4309 -1.63473,-6.74711 -1.25006,-2.31198 -2.27284,-4.29169 -2.27284,-4.39935 0,-0.10767 1.33048,-0.69333 2.95664,-1.30147 1.98104,-0.74086 3.71952,-1.88613 5.26862,-3.47085 1.95203,-1.99691 2.46181,-2.95583 3.27442,-6.15927 1.1512,-4.53821 0.78636,-6.44149 -1.86655,-9.73738 -2.3302,-2.89497 -5.85389,-4.40827 -11.10214,-4.76799 -3.8207,-0.26188 -4.20638,-0.19331 -6.22649,1.107 -1.18441,0.7624 -2.76852,2.10155 -3.52021,2.97589 l -1.36672,1.58971 -0.82785,-1.16405 c -2.78035,-3.90951 -5.45516,-5.1494 -11.10875,-5.1494 -3.33729,0 -4.21644,0.21452 -7.35348,1.7943 -3.25705,1.64023 -3.67073,2.02959 -4.81734,4.53411 -1.11393,2.43314 -1.21478,3.14103 -0.90109,6.32456 0.53182,5.39709 2.42439,8.55654 6.48623,10.82805 1.74353,0.97503 3.73588,1.77279 4.42745,1.77279 1.24071,0 1.21852,0.0754 -1.67225,5.68211 -1.6113,3.12516 -2.93765,5.85257 -2.94743,6.06091 -0.01,0.20835 0.54609,0.37881 1.23528,0.37881 0.94809,0 1.33557,0.33805 1.59204,1.38896 0.65475,2.68279 2.69445,4.3501 9.21334,7.5312 3.50726,1.71149 6.49048,3.12654 6.62937,3.14455 0.1389,0.018 3.54816,-1.97711 7.57615,-4.43362 z"
       id="path4246"
       inkscape:connector-curvature="0"
       inkscape:export-filename="C:\Users\melen\Desktop\logo.png"
       inkscape:export-xdpi="90"
       inkscape:export-ydpi="90" />
  </g>
</svg>
