<?xml version="1.0" encoding="UTF-8" standalone="no"?>
<!-- Created with Inkscape (http://www.inkscape.org/) -->

<svg
   xmlns:dc="http://purl.org/dc/elements/1.1/"
   xmlns:cc="http://creativecommons.org/ns#"
   xmlns:rdf="http://www.w3.org/1999/02/22-rdf-syntax-ns#"
   xmlns:svg="http://www.w3.org/2000/svg"
   xmlns="http://www.w3.org/2000/svg"
   xmlns:sodipodi="http://sodipodi.sourceforge.net/DTD/sodipodi-0.dtd"
   xmlns:inkscape="http://www.inkscape.org/namespaces/inkscape"
   width="210mm"
   height="297mm"
   viewBox="0 0 744.09448819 1052.3622047"
   id="svg2"
   version="1.1"
   inkscape:version="0.91 r13725"
   sodipodi:docname="concept.svg">
  <defs
     id="defs4" />
  <sodipodi:namedview
     id="base"
     pagecolor="#ffffff"
     bordercolor="#666666"
     borderopacity="1.0"
     inkscape:pageopacity="0.0"
     inkscape:pageshadow="2"
     inkscape:zoom="0.98994949"
     inkscape:cx="210.01196"
     inkscape:cy="733.82904"
     inkscape:document-units="px"
     inkscape:current-layer="layer1"
     showgrid="false"
     inkscape:window-width="1366"
     inkscape:window-height="705"
     inkscape:window-x="-8"
     inkscape:window-y="-8"
     inkscape:window-maximized="1" />
  <metadata
     id="metadata7">
    <rdf:RDF>
      <cc:Work
         rdf:about="">
        <dc:format>image/svg+xml</dc:format>
        <dc:type
           rdf:resource="http://purl.org/dc/dcmitype/StillImage" />
        <dc:title></dc:title>
      </cc:Work>
    </rdf:RDF>
  </metadata>
  <g
     inkscape:label="Layer 1"
     inkscape:groupmode="layer"
     id="layer1">
    <path
       style="fill:none;fill-rule:evenodd;stroke:#000000;stroke-width:1px;stroke-linecap:butt;stroke-linejoin:miter;stroke-opacity:1"
       d="m 3.0304576,211.91529 34.3451864,4.54568 37.375644,2.02031 44.951792,-2.02031 29.29442,-0.50507 42.93148,0.50507 37.37565,4.54569 35.35534,5.55584 25.25381,6.56599 18.18275,13.13198 5.05076,9.09138 7.07107,13.63706 1.01015,16.16244 -2.02031,11.11167 -5.05076,10.60661 -12.62691,13.13198 -21.2132,9.09137 -20.70813,5.05076 -20.20305,4.04061 -46.97209,4.04061 -40.91118,1.51523 -10.6066,-1.51523 -15.15229,2.02031 -44.44671,5.55584 -42.931483,6.56599 -34.8502631,6.06092 z"
       id="path4193"
       inkscape:connector-curvature="0"
       inkscape:export-xdpi="90"
       inkscape:export-ydpi="90" />
    <path
       style="fill:none;fill-rule:evenodd;stroke:#000000;stroke-width:1px;stroke-linecap:butt;stroke-linejoin:miter;stroke-opacity:1"
       d="m 130,237.3622 0,21.42858 0.71429,23.57142 5,30.71429 2.85714,7.14286"
       id="path4195"
       inkscape:connector-curvature="0"
       inkscape:export-xdpi="90"
       inkscape:export-ydpi="90" />
    <path
       style="fill:none;fill-rule:evenodd;stroke:#000000;stroke-width:1px;stroke-linecap:butt;stroke-linejoin:miter;stroke-opacity:1"
       d="m 220.63506,213.27827 -4.86629,-4.66081 -4.75118,-8.31518 -3.87473,-10.79722 -6.42857,7.85714 -5,4.28572 -5,0 0,-7.14286 1.42857,-3.57143 6.60714,-9.64286 3.75,-5.35714 3.42349,-2.8915 -0.0306,-3.17993 1.96428,-10 5.53572,-11.42857 6.25,-6.42857 9.64285,-8.03571 10.17858,-3.75 10.23087,0.0201 7.36104,1.49882 12.26015,6.69009 6.63779,6.60342 4.56888,6.42857 3.94127,10.72326 1.82007,7.37899 0.7703,9.16316 2.75779,1.20667 0.90184,7.7869 c 0,0 3.57142,7.85714 3.57142,8.57142 0,0.71429 1.07143,8.57143 1.07143,8.57143 L 295,211.29077 l -5,0 -4.46429,-2.85714 -3.92857,-7.63742 -7.66062,10.12999 -8.78807,7.39014 -12.14132,4.37237 -13.85678,0.13153 -14.14022,-5.91453 z"
       id="path4197"
       inkscape:connector-curvature="0"
       sodipodi:nodetypes="ccccccccccccccccccccccccccccsccccccccccc"
       inkscape:export-xdpi="90"
       inkscape:export-ydpi="90" />
    <path
       style="fill:none;fill-rule:evenodd;stroke:#000000;stroke-width:1px;stroke-linecap:butt;stroke-linejoin:miter;stroke-opacity:1"
       d="m 231.25,194.8622 0.53571,2.67857 2.5,2.85715 12.5,6.07143 13.75,-8.39286 0.89286,-1.07143 0.35714,-2.32143 z"
       id="path4222"
       inkscape:connector-curvature="0"
       inkscape:export-xdpi="90"
       inkscape:export-ydpi="90" />
    <path
       style="fill:none;fill-rule:evenodd;stroke:#000000;stroke-width:1px;stroke-linecap:butt;stroke-linejoin:miter;stroke-opacity:1"
       d="m 228.92857,194.32649 5.17857,-10 5.17857,-6.07143 3.92858,-3.21429 4.64285,-0.71428 3.39286,1.25 7.32143,8.39286 c 0,0 4.10714,7.85714 4.64286,9.10714 0.53571,1.25 -1.25,1.60714 -1.25,1.60714 z"
       id="path4224"
       inkscape:connector-curvature="0"
       inkscape:export-xdpi="90"
       inkscape:export-ydpi="90" />
    <path
       style="fill:none;fill-rule:evenodd;stroke:#000000;stroke-width:1px;stroke-linecap:butt;stroke-linejoin:miter;stroke-opacity:1"
       d="m 235,182.3622 -3.21429,0 -6.07142,-3.39285 -2.85715,-5.17858 -0.71428,-6.78571 2.32143,-5.17857 7.14285,-3.57143 7.14286,0.35714 4.46429,1.78572 3.57142,5 -1.07142,7.85714 -0.35715,1.25 -3.21428,0.89286 -2.5,1.96428 z"
       id="path4226"
       inkscape:connector-curvature="0"
       inkscape:export-xdpi="90"
       inkscape:export-ydpi="90" />
    <path
       style="fill:none;fill-rule:evenodd;stroke:#000000;stroke-width:1px;stroke-linecap:butt;stroke-linejoin:miter;stroke-opacity:1"
       d="m 246.25,171.1122 1.42857,3.57143 2.85714,0.89286 5,4.64286 1.60715,2.32142 3.03571,0 4.28572,-1.60714 4.82142,-4.82143 1.07143,-4.10714 0.71429,-2.85714 -0.89286,-3.39286 -3.39286,-4.10714 -5.17857,-2.32143 -7.67857,-0.35714 -4.46428,2.85714 -2.5,3.39286 z"
       id="path4230"
       inkscape:connector-curvature="0"
       inkscape:export-xdpi="90"
       inkscape:export-ydpi="90" />
    <ellipse
       style="opacity:1;fill:#000000;fill-opacity:1;stroke-width:1.55400002;stroke-miterlimit:4;stroke-dasharray:none"
       id="path4232"
       cx="237.5"
       cy="171.46935"
       rx="2.5"
       ry="2.6785715"
       inkscape:export-xdpi="90"
       inkscape:export-ydpi="90" />
    <ellipse
       style="opacity:1;fill:#000000;fill-opacity:1;stroke-width:1.55400002;stroke-miterlimit:4;stroke-dasharray:none"
       id="path4234"
       cx="254.82143"
       cy="172.3622"
       rx="2.6785715"
       ry="2.1428571"
       inkscape:export-xdpi="90"
       inkscape:export-ydpi="90" />
    <path
       style="fill:none;fill-rule:evenodd;stroke:#000000;stroke-width:1px;stroke-linecap:butt;stroke-linejoin:miter;stroke-opacity:1"
       d="m 253.21429,130.57649 -6.78572,-5 -7.5,-1.78572 -14.28571,0.35715 -6.78572,5 0,6.07143 5.71429,0.71428 4.64286,-0.71428 10.35714,-5.35715 z"
       id="path4236"
       inkscape:connector-curvature="0"
       inkscape:export-xdpi="90"
       inkscape:export-ydpi="90" />
  </g>
</svg>
